<?xml version="1.0" encoding="utf-8"?>
<!-- Generator: Adobe Illustrator 16.0.0, SVG Export Plug-In . SVG Version: 6.00 Build 0)  -->
<!DOCTYPE svg PUBLIC "-//W3C//DTD SVG 1.1//EN" "http://www.w3.org/Graphics/SVG/1.1/DTD/svg11.dtd">
<svg version="1.1" id="Layer_1" xmlns="http://www.w3.org/2000/svg" xmlns:xlink="http://www.w3.org/1999/xlink" x="0px" y="0px"
	 width="230px" height="230px" viewBox="0 0 230 230" enable-background="new 0 0 230 230" xml:space="preserve">
<path fill="#010101" d="M112.984,152.397c5.569,0,10.081,4.512,10.081,10.08c0,5.569-4.512,10.084-10.081,10.084
	s-10.083-4.515-10.083-10.084C102.901,156.909,107.415,152.397,112.984,152.397z M115.001,71.729
	c17.821,0,32.265,11.526,32.265,28.233c0,6.05-4.03,16.134-12.1,20.167c-8.065,4.034-12.101,9.451-12.101,16.134v8.063h-20.165
	v-6.049c0-13.715,12.1-22.181,16.135-26.215c8.064-8.066,8.064-9.186,8.064-12.1c0-6.682-5.418-12.1-12.1-12.1
	c-6.683,0-12.1,5.417-12.1,12.1v6.05H82.735v-4.035C82.735,85.273,97.18,71.729,115.001,71.729z"/>
</svg>
